<svg width="20" height="20" viewBox="0 0 20 20" fill="none" xmlns="http://www.w3.org/2000/svg">
<path d="M3.90591 5.1775L5.66675 15.8133C5.74729 16.3002 5.99807 16.7427 6.37442 17.062C6.75076 17.3813 7.22822 17.5566 7.72175 17.5567H10.5117M16.0934 5.1775L14.3334 15.8133C14.2529 16.3002 14.0021 16.7427 13.6257 17.062C13.2494 17.3813 12.7719 17.5566 12.2784 17.5567H9.48841M8.35175 9.26334V13.4708M11.6484 9.26334V13.4708M2.29175 5.1775H17.7084M12.3142 5.1775V3.69417C12.3142 3.36265 12.1826 3.0447 11.9481 2.81028C11.7137 2.57586 11.3958 2.44417 11.0642 2.44417H8.93591C8.60439 2.44417 8.28645 2.57586 8.05203 2.81028C7.81761 3.0447 7.68591 3.36265 7.68591 3.69417V5.1775H12.3142Z" stroke="#D70101" stroke-width="1.5" stroke-linecap="round" stroke-linejoin="round"/>
</svg>
